# xmcd
#
# Track frame offsets: 
#        150
#        10642
#        22235
#        32797
#        41555
#        51805
#        61137
#        71962
#        84592
#        95650
#        106627
#        116762
#        129885
#        140170
#        149850
#        159927
#        171217
#        180110
#        191777
#        201760
#        214097
#        224617
#        233455
#        246182
#        257170
#        267937
#        279687
#        289785
#        303252
#        313842
#        323162
#        333212
#        344825
#
# Disc length: 4603 seconds
#
# Revision: 3
# Processed by: cddbd v1.5.2PL0 Copyright (c) Steve Scherf et al.
# Submitted via: ExactAudioCopy v1.3
#
DISCID=fa11f921
DTITLE=Faron Young - The Classic Years 1952-62_CD4
DYEAR=1992
DGENRE=Country
TTITLE0=Riverboat
TTITLE1=Country Girl
TTITLE2=Face to the Wall
TTITLE3=There's Not Any Like You Left
TTITLE4=Forget the Past
TTITLE5=A World So Full of Love
TTITLE6=Hello Walls
TTITLE7=Is She All You Thought She'd Be
TTITLE8=Congratulations
TTITLE9=Three Days
TTITLE10=Safely in Love Again
TTITLE11=Down by the River
TTITLE12=The Part Where I Cry
TTITLE13=I Hear You Talkin'
TTITLE14=Big Shoes
TTITLE15=Believing in Yourself
TTITLE16=The Comeback
TTITLE17=Over Lonely and Under Kissed
TTITLE18=Things to Remember
TTITLE19=I Fall to Pieces
TTITLE20=A Moment Isn't Very Long
TTITLE21=Goin' Steady
TTITLE22=Moments to Remember
TTITLE23=Three Days
TTITLE24=A Lifetime Isn't Long Enough
TTITLE25=I Can't Find the Time
TTITLE26=Trail of Tears
TTITLE27=I Let It Slip Away
TTITLE28=Let's Pretend We're Lovers Again
TTITLE29=Backtrack
TTITLE30=How Can I Forget You
TTITLE31=I Can't Find the Time
TTITLE32=[Untitled Hidden Track]
EXTD=
EXTT0=
EXTT1=
EXTT2=
EXTT3=
EXTT4=
EXTT5=
EXTT6=
EXTT7=
EXTT8=
EXTT9=
EXTT10=
EXTT11=
EXTT12=
EXTT13=
EXTT14=
EXTT15=
EXTT16=
EXTT17=
EXTT18=
EXTT19=
EXTT20=
EXTT21=
EXTT22=
EXTT23=
EXTT24=
EXTT25=
EXTT26=
EXTT27=
EXTT28=
EXTT29=
EXTT30=
EXTT31=
EXTT32=
PLAYORDER=
